# xmcd CD database file
#
# Track frame offsets:
#	182
#	15970
#	37182
#	52695
#	75840
#	94630
#	110177
#	124075
#	139882
#	156630
#	172822
#	187187
#	203302
#	217015
#	235680
#	250182
#	266407
#	284330
#	301220
#	318432
#
# Disc length: 4438 seconds
#
# Revision: 8
# Processed by: cddbd v1.5.2PL0 Copyright (c) Steve Scherf et al.
# Submitted via: CDex 1.70beta2
#
DISCID=0c115414
DTITLE=Various Artist - Booom 2000 - The Third  CD1
DYEAR=2000
DGENRE=Pop
TTITLE0=Zlatko and Jürgen - Großer Bruder
TTITLE1=DJ Tomekk feat. GZA, Prodigal Sunn, Curse and Luxus Chris - Ich lebe für Hip Hop
TTITLE2=Deichkind feat. Nina - Bon Voyage
TTITLE3=Echt - Junimond
TTITLE4=Band Ohne Namen - Take My Heart
TTITLE5=Passion Fruit - Sun Fan Baby
TTITLE6=H-BlockX vs. Dr. Ring-Ding - Ring Of Fire
TTITLE7=Guano Apes - No Speech
TTITLE8=Atemlos - Nichts mehr von Dir
TTITLE9=Four Colourz - ABCD
TTITLE10=Ruben Gomez - Siempre Mañana (Tomorrow Forever)
TTITLE11=Suco E Sol - Ylarie
TTITLE12=Dajango - Baila Chica Baila
TTITLE13=Maffay and Roh - Rette mich
TTITLE14=Miles - Perfect World
TTITLE15=Highland - Se Tu Vuoi
TTITLE16=Sweet Female Attitude - Flowers
TTITLE17=Mark Keller - You'll Never Find (Another Love Like Mine)
TTITLE18=MC Rene - Ich würde alles für Dich tun
TTITLE19=Marvin McKay - Ohne Dich (schlaf' ich heut Nacht nicht ein)
EXTD=YEAR: 2000
EXTT0=
EXTT1=
EXTT2=
EXTT3=
EXTT4=
EXTT5=
EXTT6=
EXTT7=
EXTT8=
EXTT9=
EXTT10=
EXTT11=
EXTT12=
EXTT13=
EXTT14=
EXTT15=
EXTT16=
EXTT17=
EXTT18=
EXTT19=
PLAYORDER=
